<svg id="Layer_1" data-name="Layer 1" xmlns="http://www.w3.org/2000/svg" viewBox="0 0 133.98 133.98"><defs><style>.cls-1{fill:#4d4d4d;}.cls-2{fill:#fff;}</style></defs><title>instagram</title><circle class="cls-1" cx="66.99" cy="66.99" r="66.99"/><path class="cls-2" d="M67,23.61c-11.78,0-13.26.05-17.88.26a31.86,31.86,0,0,0-10.53,2A22.12,22.12,0,0,0,25.89,38.58a31.86,31.86,0,0,0-2,10.53c-.21,4.62-.26,6.1-.26,17.88s.05,13.26.26,17.89a31.92,31.92,0,0,0,2,10.53,22.14,22.14,0,0,0,12.69,12.68,31.61,31.61,0,0,0,10.53,2c4.62.21,6.1.26,17.88.26s13.26-.05,17.89-.26a31.66,31.66,0,0,0,10.53-2,22.16,22.16,0,0,0,12.68-12.68,31.66,31.66,0,0,0,2-10.53c.21-4.63.26-6.11.26-17.89s-.05-13.26-.26-17.88a31.61,31.61,0,0,0-2-10.53A22.14,22.14,0,0,0,95.41,25.89a31.92,31.92,0,0,0-10.53-2c-4.63-.21-6.11-.26-17.89-.26Zm0,7.82c11.58,0,13,0,17.53.25a24.1,24.1,0,0,1,8.06,1.49,14.43,14.43,0,0,1,8.23,8.24,24,24,0,0,1,1.49,8.05c.21,4.58.26,5.95.26,17.53s0,13-.26,17.53a24.1,24.1,0,0,1-1.49,8.06,14.45,14.45,0,0,1-8.23,8.23,24.1,24.1,0,0,1-8.06,1.49c-4.57.21-5.94.26-17.53.26s-12.95,0-17.53-.26a24,24,0,0,1-8.05-1.49,14.43,14.43,0,0,1-8.24-8.23,24.1,24.1,0,0,1-1.49-8.06c-.21-4.57-.25-6-.25-17.53s0-12.95.25-17.53a24,24,0,0,1,1.49-8.05,14.41,14.41,0,0,1,8.24-8.24,24,24,0,0,1,8.05-1.49c4.58-.21,5.95-.25,17.53-.25"/><path class="cls-2" d="M67,81.45A14.46,14.46,0,1,1,81.45,67,14.46,14.46,0,0,1,67,81.45Zm0-36.73A22.28,22.28,0,1,0,89.27,67,22.27,22.27,0,0,0,67,44.72Z"/><path class="cls-2" d="M95.35,43.84a5.21,5.21,0,1,1-5.2-5.21,5.2,5.2,0,0,1,5.2,5.21Z"/></svg>