<svg id="Layer_1" data-name="Layer 1" xmlns="http://www.w3.org/2000/svg" viewBox="0 0 133.98 133.98"><defs><style>.cls-1{fill:#4d4d4d;}.cls-2{fill:#fff;}</style></defs><title>twitter</title><circle class="cls-1" cx="66.99" cy="66.99" r="66.99"/><path class="cls-2" d="M54.61,98.49c29.26,0,45.25-24.23,45.25-45.25,0-.69,0-1.37,0-2.06A32.32,32.32,0,0,0,107.75,43a31.5,31.5,0,0,1-9.13,2.5,15.94,15.94,0,0,0,7-8.79,32.07,32.07,0,0,1-10.1,3.86A15.92,15.92,0,0,0,68.41,55,45.1,45.1,0,0,1,35.63,38.4a15.91,15.91,0,0,0,4.92,21.24,15.78,15.78,0,0,1-7.2-2,1.27,1.27,0,0,0,0,.2A15.92,15.92,0,0,0,46.1,73.44a16,16,0,0,1-4.19.56,15.55,15.55,0,0,1-3-.29A15.93,15.93,0,0,0,53.78,84.76,31.9,31.9,0,0,1,34,91.57a34,34,0,0,1-3.8-.22,45,45,0,0,0,24.38,7.14"/></svg>