<svg id="Layer_1" data-name="Layer 1" xmlns="http://www.w3.org/2000/svg" viewBox="0 0 133.98 133.98"><defs><style>.cls-1{fill:#4d4d4d;}.cls-2{fill:#fff;}</style></defs><title>youtube</title><circle class="cls-1" cx="66.99" cy="66.99" r="66.99"/><path class="cls-2" d="M58,80V54L80.92,67,58,80Zm50.9-34.23A11,11,0,0,0,101.2,38C94.37,36.15,67,36.15,67,36.15s-27.38,0-34.21,1.84A11,11,0,0,0,25,45.78C23.21,52.65,23.21,67,23.21,67s0,14.34,1.83,21.21A11,11,0,0,0,32.78,96C39.61,97.84,67,97.84,67,97.84s27.38,0,34.21-1.84a11,11,0,0,0,7.74-7.8c1.83-6.87,1.83-21.21,1.83-21.21s0-14.34-1.83-21.21Z"/></svg>