<svg id="Layer_1" data-name="Layer 1" xmlns="http://www.w3.org/2000/svg" viewBox="0 0 220.21 142.66"><defs><style>.cls-1{fill:#fff;}</style></defs><title>future-brand</title><path class="cls-1" d="M45.45,95.69V50.88H57c9.39,0,14.41,5.15,14.41,11.93,0,3.7-1.33,6.18-4.91,9a11.71,11.71,0,0,1,7.45,11c0,6.12-3.45,12.84-15.13,12.84ZM57,70.2c8.6,0,9.87-5,9.87-7.57,0-3.33-1.94-7.69-10.23-7.69H49.93V70.2Zm1.39,21.43c5.76,0,11-2.3,11-8.78,0-5.08-4.42-8.59-11-8.59H49.93V91.63Z"/><path class="cls-1" d="M107.51,95.69h-5.17l-2.19-3-2,3h-5l4.44-6.56-10.21-14C93.78,75,95.51,74.8,97.7,74a8.68,8.68,0,0,0,6-8,10.66,10.66,0,0,0-3.51-8.22C98,56.1,95.24,55.37,90.8,55.37H83.37V95.69H79V51.46H90.33c6,0,9.55.93,12.54,3.18a13.91,13.91,0,0,1,5.37,11.21,13.45,13.45,0,0,1-6.5,11.21,16.67,16.67,0,0,1-6.3,2l4.64,6.37,23.35-34H129V95.69h-4.38v-15H108.44l-5.77,8.42ZM124.62,57,111.16,76.66h13.46Z"/><path class="cls-1" d="M167.85,95.69,141.27,56.27h-.12V95.69h-4.48V50.88h6.05l25,37.18h.12V50.88h4.48V95.69Z"/><path class="cls-1" d="M179.91,95.69V50.88h13.26A27.83,27.83,0,0,1,208,54.82a22.44,22.44,0,0,1,9.75,18.71A21.85,21.85,0,0,1,211.27,89c-4.36,4.54-10.72,6.72-18.28,6.72Zm12.71-4.06c7.45,0,12.42-1.93,15.68-5.38a18.8,18.8,0,0,0,5-13,17.75,17.75,0,0,0-7.15-14.53c-3.14-2.43-7.93-3.82-13.68-3.82h-8.05V91.63Z"/><path class="cls-1" d="M45.45,44.54V1.74H67.09V5.61H49.73v15.5H66.45V25H49.73V44.54Z"/><path class="cls-1" d="M77.28,2.29V26.93c0,5.32.57,8,2.22,10.26a9.54,9.54,0,0,0,7.67,3.87,9.93,9.93,0,0,0,8.74-5.32c.82-1.78,1.14-4.31,1.14-8.68V6H86.34V2.29h15V28.07c0,6.34-1,9.69-3.68,12.67a15,15,0,0,1-10.45,4.69,14.33,14.33,0,0,1-12-7C73.61,35.74,73.1,33,73.1,27.94V2.29Zm27.18,42.25V2.29h14.89V6H108.64V44.54Z"/><path class="cls-1" d="M148.32,1.74h4.28V28.87c0,10.81-6.3,16.43-14.58,16.43s-14.58-5.44-14.58-16.55v-27h4.29V29c0,8.62,4.63,12.44,10.29,12.44,4.92,0,10.3-3.07,10.3-12.38Z"/><path class="cls-1" d="M183.15,44.54,168.63,25.16h4.17c7.57,0,12.09-3.87,12.09-9.71,0-4-2.49-9.84-12.33-9.84h-8.15V44.54h-4.28V1.74H173c11.16,0,16.14,6.59,16.14,13.82,0,6.94-5.21,12.44-12.73,13l12.09,16Z"/><path class="cls-1" d="M194.32,44.54V1.74h23.43V5.61H198.6V21h18.52v3.88H198.6V40.67h19.15v3.87Z"/><path class="cls-1" d="M3.05,89.35l12.81-4.19L3.05,81.05V74.43L21.88,82H34.42v6.44H21.88L3.05,96Z"/><path class="cls-1" d="M18.74,51.88C29.12,51.88,35,56.08,35,63.41S29.08,74.94,18.7,74.94,2.46,70.78,2.46,63.41,8.35,51.88,18.74,51.88ZM29.08,63.41c0-3.52-3.26-4.92-10.34-4.92s-10.34,1.4-10.34,5,3.39,4.88,10.34,4.88C25.86,68.33,29.08,66.93,29.08,63.41Z"/><path class="cls-1" d="M3.05,42.08H24.59c2.88,0,4.36-1,4.36-3.9s-1.31-3.9-4.36-3.9H3.05V27.84h22.6c5.93,0,9.37,3.52,9.37,10.34s-3.44,10.35-9.37,10.35H3.05Z"/><path class="cls-1" d="M3.05,14.91C3.05,11,4,8,5.85,6.39a10.79,10.79,0,0,1,7.25-2.5c4.07,0,7.33,1.86,8.82,4.62l12.5-5.94V9.78L18.48,16.69v-1c0-3.52-1.95-5.22-4.83-5.22S9,11.73,9,15v1.82H34.42v6.45H3.05Z"/><path class="cls-1" d="M17.47,122.34,14.14,109.5h-.05l-3.33,12.84H8.41L3.27,104H6.05l3.5,13.82h0L13.15,104h2l3.5,13.72h.05L22.23,104H25l-5.13,18.37Z"/><path class="cls-1" d="M27.22,122.34V104H29.9v18.37Z"/><path class="cls-1" d="M33.69,122.34V104h2.69v15.91h6.38v2.46Z"/><path class="cls-1" d="M44.71,122.34V104H47.4v15.91h6.38v2.46Z"/><path class="cls-1" d="M71.5,122.34l-6.06-8.52h0v8.52H62.71V104h5.88C73,104,75,106.3,75,110.07a5.26,5.26,0,0,1-5.26,5.41l5.14,6.86Zm-4.15-8.89c3.13,0,4.94-1.22,4.94-3.6,0-2.11-1.69-3.43-4.07-3.43H65.39v7Z"/><path class="cls-1" d="M87.28,104H90v12.56a6.16,6.16,0,0,1-12.31,0V104h2.68v12.36c0,2.28,1.29,3.9,3.47,3.9s3.48-1.64,3.48-3.9Z"/><path class="cls-1" d="M105.47,122.34l-9.08-14.2h0v14.2H93.66V104h2.92l8.94,14h0V104h2.68v18.37Z"/><path class="cls-1" d="M136.15,117.79a9.37,9.37,0,0,1-8.49,4.89,9.62,9.62,0,0,1-9.29-9.45,9.51,9.51,0,0,1,17.9-4.57h-3.22a6.54,6.54,0,0,0-5.17-2.58,6.91,6.91,0,0,0-6.82,6.9c0,3.85,2.9,7.25,6.67,7.25a6.58,6.58,0,0,0,5.12-2.44Z"/><path class="cls-1" d="M138.7,122.34V104h2.68v18.37Z"/><path class="cls-1" d="M153.62,122.34l-6.06-8.52h-.05v8.52h-2.68V104h5.88c4.42,0,6.38,2.33,6.38,6.1a5.26,5.26,0,0,1-5.26,5.41l5.14,6.86Zm-4.15-8.89c3.13,0,4.94-1.22,4.94-3.6,0-2.11-1.68-3.43-4.07-3.43h-2.83v7Z"/><path class="cls-1" d="M176.68,117.79a9.37,9.37,0,0,1-8.49,4.89,9.62,9.62,0,0,1-9.29-9.45,9.51,9.51,0,0,1,17.9-4.57h-3.23a6.52,6.52,0,0,0-5.16-2.58,6.92,6.92,0,0,0-6.83,6.9c0,3.85,2.91,7.25,6.68,7.25a6.59,6.59,0,0,0,5.12-2.44Z"/><path class="cls-1" d="M179.33,122.34V104H182v15.91h6.38v2.46Z"/><path class="cls-1" d="M190,122.34V104h9.91v2.45h-7.23v5.42h7.23v2.45h-7.23v5.59h7.23v2.46Z"/><path class="cls-1" d="M210,108.73a2.45,2.45,0,0,0-2.58-2.65,2.55,2.55,0,0,0-2.46,2.5c0,1.29.87,2,2.66,2.61,4,1.27,5.43,2.76,5.43,5.93a5.36,5.36,0,0,1-5.63,5.56,5.5,5.5,0,0,1-5.66-5.78h2.68c0,2,1.19,3.33,3,3.33a2.88,2.88,0,0,0,2.95-3.11c0-1.34-.59-2.18-2.55-2.85-4.55-1.54-5.54-3-5.54-5.64a5.06,5.06,0,0,1,5.14-5,4.92,4.92,0,0,1,5.26,5.11Z"/><path class="cls-1" d="M13.24,140.72l-1.71-4H6l-1.73,4H3.06l5.06-11.84H9.45l5.09,11.84Zm-4.45-10.5-2.32,5.44h4.6Z"/><path class="cls-1" d="M22.2,140.72l-4-5.36h1.16c2.09,0,3.34-1.07,3.34-2.69,0-1.12-.69-2.72-3.41-2.72H17v10.77H15.83V128.88H19.4c3.09,0,4.47,1.82,4.47,3.82a3.63,3.63,0,0,1-3.53,3.6l3.35,4.42Z"/><path class="cls-1" d="M31.37,140.93a6.13,6.13,0,1,1,6.27-6.13A6.26,6.26,0,0,1,31.37,140.93Zm0-11.19a5.06,5.06,0,1,0,5.11,5.07A5.14,5.14,0,0,0,31.35,129.74Z"/><path class="cls-1" d="M46.41,128.88h1.18v7.5c0,3-1.74,4.55-4,4.55s-4-1.51-4-4.58v-7.47h1.18v7.54c0,2.38,1.28,3.44,2.85,3.44,1.36,0,2.85-.85,2.85-3.43Z"/><path class="cls-1" d="M58.25,140.72l-7-10.42h0v10.42H50V128.88h1.6l6.61,9.82h0v-9.82h1.18v11.84Z"/><path class="cls-1" d="M61.83,140.72V128.88h3.5a7.37,7.37,0,0,1,3.93,1,5.91,5.91,0,0,1,2.57,4.94,5.76,5.76,0,0,1-1.71,4.08,6.47,6.47,0,0,1-4.83,1.78Zm3.36-1.07a5.38,5.38,0,0,0,4.15-1.43,5,5,0,0,0,1.31-3.42A4.69,4.69,0,0,0,68.76,131a6,6,0,0,0-3.62-1H63v9.7Z"/><path class="cls-1" d="M79.8,140.72V130H77.08v-1.07h6.61V130H81v10.77Z"/><path class="cls-1" d="M92.33,140.72v-5.55H86.2v5.55H85V128.88H86.2v5.21h6.13v-5.21h1.18v11.84Z"/><path class="cls-1" d="M95.85,140.72V128.88h6.48V130H97v4.26h5.12v1.07H97v4.37h5.3v1.07Z"/><path class="cls-1" d="M120.07,137.62a6.26,6.26,0,0,1-5.45,3.31,6.13,6.13,0,1,1,5.41-9H118.7a5,5,0,0,0-4.12-2.16,5.05,5.05,0,0,0,0,10.1,5.2,5.2,0,0,0,4.15-2.24Z"/><path class="cls-1" d="M127.69,140.93A6.13,6.13,0,1,1,134,134.8,6.26,6.26,0,0,1,127.69,140.93Zm0-11.19a5.06,5.06,0,1,0,5.11,5.07A5.14,5.14,0,0,0,127.67,129.74Z"/><path class="cls-1" d="M147,140.72V130.17h0l-4.43,10.55h-1l-4.4-10.55h0v10.55h-1.19V128.88h1.83L142,139l4.32-10.08h1.83v11.84Z"/><path class="cls-1" d="M150.55,140.72V128.88h3.58c3.27,0,4.25,1.93,4.25,3.57s-1,3.5-4.26,3.5h-2.39v4.77Zm3.83-5.84a2.53,2.53,0,0,0,2.81-2.47c0-1.18-.75-2.46-3.07-2.46h-2.39v4.93Z"/><path class="cls-1" d="M159.94,140.72V128.88h6.48V130h-5.3v4.26h5.13v1.07h-5.13v4.37h5.3v1.07Z"/><path class="cls-1" d="M170.21,140.72V130h-2.72v-1.07h6.61V130h-2.7v10.77Z"/><path class="cls-1" d="M175.43,140.72V128.88h1.18v11.84Z"/><path class="cls-1" d="M180.65,140.72V130h-2.73v-1.07h6.62V130h-2.71v10.77Z"/><path class="cls-1" d="M185.86,140.72V128.88H187v11.84Z"/><path class="cls-1" d="M195.21,140.93a6.13,6.13,0,1,1,6.27-6.13A6.25,6.25,0,0,1,195.21,140.93Zm0-11.19a5.06,5.06,0,1,0,5.11,5.07A5.14,5.14,0,0,0,195.19,129.74Z"/><path class="cls-1" d="M211.61,140.72l-7-10.42h0v10.42h-1.19V128.88H205l6.62,9.82h0v-9.82h1.18v11.84Z"/></svg>